<svg xmlns="http://www.w3.org/2000/svg" width="450" height="702" viewBox="0 0 450 702" role="img" aria-labelledby="title desc">
<title>Simple AI system blueprint</title>
<desc>Generated SVG rendering of a Mermaid flowchart.</desc>
<defs>
<marker id="arrow" viewBox="0 0 10 10" refX="9" refY="5" markerWidth="7" markerHeight="7" orient="auto-start-reverse"><path d="M 0 0 L 10 5 L 0 10 z" fill="#475569"/></marker>
</defs>
<style>
.canvas{fill:#ffffff}.group{fill:#f8fafc;stroke:#cbd5e1;stroke-width:1.4}.group-title{font:600 14px Arial,sans-serif;fill:#334155}.node{fill:#eef6ff;stroke:#2563eb;stroke-width:1.5}.diamond{fill:#fff7ed;stroke:#ea580c;stroke-width:1.5}.node-text{font:13px Arial,sans-serif;fill:#0f172a}.edge{fill:none;stroke:#475569;stroke-width:1.45}.edge-label{font:12px Arial,sans-serif;fill:#475569}.label-bg{fill:#ffffff;opacity:.92}
</style>
<rect class="canvas" x="0" y="0" width="450" height="702"/>
<path class="edge" d="M 109.0 266.0 C 225.0 266.0, 225.0 88.0, 341.0 88.0" marker-end="url(#arrow)"/>
<path class="edge" d="M 109.0 382.0 C 225.0 382.0, 225.0 204.0, 341.0 204.0" marker-end="url(#arrow)"/>
<path class="edge" d="M 109.0 498.0 C 225.0 498.0, 225.0 320.0, 341.0 320.0" marker-end="url(#arrow)"/>
<path class="edge" d="M 109.0 614.0 C 225.0 614.0, 225.0 88.0, 341.0 88.0" marker-end="url(#arrow)" stroke-dasharray="6 5"/>
<rect class="label-bg" x="163.0" y="337.0" width="124.0" height="20" rx="4"/>
<text class="edge-label" x="225.0" y="351.0" text-anchor="middle">versioned update</text>
<rect class="node" x="34.0" y="34.0" width="150" height="54" rx="8"/>
<text class="node-text" x="109.0" y="66.0" text-anchor="middle"><tspan x="109.0" dy="0">User or client</tspan></text>
<rect class="node" x="34.0" y="150.0" width="150" height="54" rx="8"/>
<text class="node-text" x="109.0" y="182.0" text-anchor="middle"><tspan x="109.0" dy="0">api</tspan></text>
<rect class="node" x="34.0" y="266.0" width="150" height="54" rx="8"/>
<text class="node-text" x="109.0" y="298.0" text-anchor="middle"><tspan x="109.0" dy="0">context</tspan></text>
<rect class="node" x="266.0" y="34.0" width="150" height="54" rx="8"/>
<text class="node-text" x="341.0" y="66.0" text-anchor="middle"><tspan x="341.0" dy="0">Model or rules</tspan></text>
<rect class="node" x="34.0" y="382.0" width="150" height="54" rx="8"/>
<text class="node-text" x="109.0" y="414.0" text-anchor="middle"><tspan x="109.0" dy="0">policy</tspan></text>
<rect class="node" x="266.0" y="150.0" width="150" height="54" rx="8"/>
<text class="node-text" x="341.0" y="182.0" text-anchor="middle"><tspan x="341.0" dy="0">Response</tspan></text>
<rect class="node" x="34.0" y="498.0" width="150" height="54" rx="8"/>
<text class="node-text" x="109.0" y="530.0" text-anchor="middle"><tspan x="109.0" dy="0">logs</tspan></text>
<rect class="node" x="266.0" y="266.0" width="150" height="54" rx="8"/>
<text class="node-text" x="341.0" y="298.0" text-anchor="middle"><tspan x="341.0" dy="0">Evaluation</tspan></text>
<rect class="node" x="34.0" y="614.0" width="150" height="54" rx="8"/>
<text class="node-text" x="109.0" y="646.0" text-anchor="middle"><tspan x="109.0" dy="0">registry</tspan></text>
</svg>
