<svg xmlns="http://www.w3.org/2000/svg" width="1774" height="238" viewBox="0 0 1774 238" role="img" aria-labelledby="title desc">
<title>00_study_plan_and_strategy diagram 1: Minutes 10–20: high-level architecture</title>
<desc>Generated SVG rendering of a Mermaid flowchart.</desc>
<defs>
<marker id="arrow" viewBox="0 0 10 10" refX="9" refY="5" markerWidth="7" markerHeight="7" orient="auto-start-reverse"><path d="M 0 0 L 10 5 L 0 10 z" fill="#475569"/></marker>
</defs>
<style>
.canvas{fill:#ffffff}.group{fill:#f8fafc;stroke:#cbd5e1;stroke-width:1.4}.group-title{font:600 14px Arial,sans-serif;fill:#334155}.node{fill:#eef6ff;stroke:#2563eb;stroke-width:1.5}.diamond{fill:#fff7ed;stroke:#ea580c;stroke-width:1.5}.node-text{font:13px Arial,sans-serif;fill:#0f172a}.edge{fill:none;stroke:#475569;stroke-width:1.45}.edge-label{font:12px Arial,sans-serif;fill:#475569}.label-bg{fill:#ffffff;opacity:.92}
</style>
<rect class="canvas" x="0" y="0" width="1774" height="238"/>
<path class="edge" d="M 184.0 61.0 L 266.0 61.0" marker-end="url(#arrow)"/>
<path class="edge" d="M 468.0 61.0 L 550.0 61.0" marker-end="url(#arrow)"/>
<path class="edge" d="M 700.0 61.0 L 858.0 61.0" marker-end="url(#arrow)"/>
<path class="edge" d="M 1008.0 61.0 L 1090.0 61.0" marker-end="url(#arrow)"/>
<path class="edge" d="M 367.0 88.0 C 515.0 88.0, 515.0 150.0, 663.0 150.0" marker-end="url(#arrow)"/>
<path class="edge" d="M 776.0 177.0 C 933.0 177.0, 933.0 61.0, 1090.0 61.0" marker-end="url(#arrow)"/>
<path class="edge" d="M 1240.0 61.0 L 1322.0 61.0" marker-end="url(#arrow)"/>
<path class="edge" d="M 1472.0 61.0 L 1554.0 65.0" marker-end="url(#arrow)"/>
<path class="edge" d="M 1554.0 65.0 L 468.0 61.0" marker-end="url(#arrow)" stroke-dasharray="6 5"/>
<rect class="label-bg" x="959.5" y="49.0" width="103.0" height="20" rx="4"/>
<text class="edge-label" x="1011.0" y="63.0" text-anchor="middle">feedback loop</text>
<rect class="node" x="34.0" y="34.0" width="150" height="54" rx="8"/>
<text class="node-text" x="109.0" y="66.0" text-anchor="middle"><tspan x="109.0" dy="0">Data sources</tspan></text>
<rect class="node" x="266.0" y="34.0" width="202" height="54" rx="8"/>
<text class="node-text" x="367.0" y="66.0" text-anchor="middle"><tspan x="367.0" dy="0">Ingestion and storage</tspan></text>
<rect class="node" x="550.0" y="34.0" width="150" height="54" rx="8"/>
<text class="node-text" x="625.0" y="66.0" text-anchor="middle"><tspan x="625.0" dy="0">Model training</tspan></text>
<rect class="node" x="858.0" y="34.0" width="150" height="54" rx="8"/>
<text class="node-text" x="933.0" y="66.0" text-anchor="middle"><tspan x="933.0" dy="0">Model registry</tspan></text>
<rect class="node" x="1090.0" y="34.0" width="150" height="54" rx="8"/>
<text class="node-text" x="1165.0" y="66.0" text-anchor="middle"><tspan x="1165.0" dy="0">Online serving</tspan></text>
<rect class="node" x="550.0" y="150.0" width="226" height="54" rx="8"/>
<text class="node-text" x="663.0" y="182.0" text-anchor="middle"><tspan x="663.0" dy="0">Online features or index</tspan></text>
<rect class="node" x="1322.0" y="34.0" width="150" height="54" rx="8"/>
<text class="node-text" x="1397.0" y="66.0" text-anchor="middle"><tspan x="1397.0" dy="0">Product</tspan></text>
<rect class="node" x="1554.0" y="34.0" width="186" height="62" rx="8"/>
<text class="node-text" x="1647.0" y="70.0" text-anchor="middle"><tspan x="1647.0" dy="-9">Logs, outcomes, and</tspan><tspan x="1647.0" dy="18">feedback</tspan></text>
</svg>
