<svg xmlns="http://www.w3.org/2000/svg" width="1754" height="834" viewBox="0 0 1754 834" role="img" aria-labelledby="title desc">
<title>01_design_framework_and_estimation diagram 1: 4. Requirements and architecture planes</title>
<desc>Generated SVG rendering of a Mermaid flowchart.</desc>
<defs>
<marker id="arrow" viewBox="0 0 10 10" refX="9" refY="5" markerWidth="7" markerHeight="7" orient="auto-start-reverse"><path d="M 0 0 L 10 5 L 0 10 z" fill="#475569"/></marker>
</defs>
<style>
.canvas{fill:#ffffff}.group{fill:#f8fafc;stroke:#cbd5e1;stroke-width:1.4}.group-title{font:600 14px Arial,sans-serif;fill:#334155}.node{fill:#eef6ff;stroke:#2563eb;stroke-width:1.5}.diamond{fill:#fff7ed;stroke:#ea580c;stroke-width:1.5}.node-text{font:13px Arial,sans-serif;fill:#0f172a}.edge{fill:none;stroke:#475569;stroke-width:1.45}.edge-label{font:12px Arial,sans-serif;fill:#475569}.label-bg{fill:#ffffff;opacity:.92}
</style>
<rect class="canvas" x="0" y="0" width="1754" height="834"/>
<rect class="group" x="34.0" y="34.0" width="274.0" height="758.0" rx="10"/>
<text class="group-title" x="52.0" y="62.0">Offline data plane</text>
<rect class="group" x="360.0" y="34.0" width="298.0" height="766.0" rx="10"/>
<text class="group-title" x="378.0" y="62.0">Online data plane</text>
<rect class="group" x="710.0" y="34.0" width="1010.0" height="186.0" rx="10"/>
<text class="group-title" x="728.0" y="62.0">Control plane</text>
<path class="edge" d="M 171.0 142.0 L 171.0 204.0" marker-end="url(#arrow)"/>
<path class="edge" d="M 171.0 258.0 L 171.0 320.0" marker-end="url(#arrow)"/>
<path class="edge" d="M 171.0 374.0 L 171.0 436.0" marker-end="url(#arrow)"/>
<path class="edge" d="M 171.0 490.0 L 171.0 552.0" marker-end="url(#arrow)"/>
<path class="edge" d="M 171.0 606.0 L 171.0 668.0" marker-end="url(#arrow)"/>
<path class="edge" d="M 509.0 142.0 L 509.0 204.0" marker-end="url(#arrow)"/>
<path class="edge" d="M 509.0 266.0 L 509.0 328.0" marker-end="url(#arrow)"/>
<path class="edge" d="M 509.0 382.0 L 509.0 444.0" marker-end="url(#arrow)"/>
<path class="edge" d="M 509.0 498.0 L 509.0 560.0" marker-end="url(#arrow)"/>
<path class="edge" d="M 509.0 614.0 L 509.0 676.0" marker-end="url(#arrow)"/>
<path class="edge" d="M 171.0 668.0 C 340.0 668.0, 340.0 498.0, 509.0 498.0" marker-end="url(#arrow)" stroke-dasharray="6 5"/>
<rect class="label-bg" x="285.0" y="569.0" width="110.0" height="20" rx="4"/>
<text class="edge-label" x="340.0" y="583.0" text-anchor="middle">deployed model</text>
<path class="edge" d="M 827.0 150.0 C 742.5 150.0, 742.5 417.0, 658.0 417.0" marker-end="url(#arrow)" stroke-dasharray="6 5"/>
<rect class="label-bg" x="701.5" y="269.5" width="82.0" height="20" rx="4"/>
<text class="edge-label" x="742.5" y="283.5" text-anchor="middle">configures</text>
<path class="edge" d="M 1111.0 142.0 C 884.5 142.0, 884.5 417.0, 658.0 417.0" marker-end="url(#arrow)" stroke-dasharray="6 5"/>
<rect class="label-bg" x="854.0" y="265.5" width="61.0" height="20" rx="4"/>
<text class="edge-label" x="884.5" y="279.5" text-anchor="middle">governs</text>
<path class="edge" d="M 1306.0 119.0 C 982.0 119.0, 982.0 417.0, 658.0 417.0" marker-end="url(#arrow)" stroke-dasharray="6 5"/>
<rect class="label-bg" x="948.0" y="254.0" width="68.0" height="20" rx="4"/>
<text class="edge-label" x="982.0" y="268.0" text-anchor="middle">controls</text>
<path class="edge" d="M 1542.0 115.0 C 1100.0 115.0, 1100.0 417.0, 658.0 417.0" marker-end="url(#arrow)" stroke-dasharray="6 5"/>
<rect class="label-bg" x="1066.0" y="252.0" width="68.0" height="20" rx="4"/>
<text class="edge-label" x="1100.0" y="266.0" text-anchor="middle">protects</text>
<rect class="node" x="96.0" y="88.0" width="150" height="54" rx="8"/>
<text class="node-text" x="171.0" y="120.0" text-anchor="middle"><tspan x="171.0" dy="0">Sources</tspan></text>
<rect class="node" x="82.0" y="204.0" width="178" height="54" rx="8"/>
<text class="node-text" x="171.0" y="236.0" text-anchor="middle"><tspan x="171.0" dy="0">Immutable raw data</tspan></text>
<rect class="node" x="78.0" y="320.0" width="186" height="54" rx="8"/>
<text class="node-text" x="171.0" y="352.0" text-anchor="middle"><tspan x="171.0" dy="0">Validated snapshots</tspan></text>
<rect class="node" x="78.0" y="436.0" width="186" height="54" rx="8"/>
<text class="node-text" x="171.0" y="468.0" text-anchor="middle"><tspan x="171.0" dy="0">Labels and features</tspan></text>
<rect class="node" x="62.0" y="552.0" width="218" height="54" rx="8"/>
<text class="node-text" x="171.0" y="584.0" text-anchor="middle"><tspan x="171.0" dy="0">Training and evaluation</tspan></text>
<rect class="node" x="86.0" y="668.0" width="170" height="54" rx="8"/>
<text class="node-text" x="171.0" y="700.0" text-anchor="middle"><tspan x="171.0" dy="0">Artifact registry</tspan></text>
<rect class="node" x="434.0" y="88.0" width="150" height="54" rx="8"/>
<text class="node-text" x="509.0" y="120.0" text-anchor="middle"><tspan x="509.0" dy="0">Client</tspan></text>
<rect class="node" x="400.0" y="204.0" width="218" height="62" rx="8"/>
<text class="node-text" x="509.0" y="240.0" text-anchor="middle"><tspan x="509.0" dy="-9">Authentication and rate</tspan><tspan x="509.0" dy="18">limits</tspan></text>
<rect class="node" x="408.0" y="328.0" width="202" height="54" rx="8"/>
<text class="node-text" x="509.0" y="360.0" text-anchor="middle"><tspan x="509.0" dy="0">Features or retrieval</tspan></text>
<rect class="node" x="434.0" y="444.0" width="150" height="54" rx="8"/>
<text class="node-text" x="509.0" y="476.0" text-anchor="middle"><tspan x="509.0" dy="0">Inference</tspan></text>
<rect class="node" x="388.0" y="560.0" width="242" height="54" rx="8"/>
<text class="node-text" x="509.0" y="592.0" text-anchor="middle"><tspan x="509.0" dy="0">Policy and post-processing</tspan></text>
<rect class="node" x="434.0" y="676.0" width="150" height="54" rx="8"/>
<text class="node-text" x="509.0" y="708.0" text-anchor="middle"><tspan x="509.0" dy="0">Response</tspan></text>
<rect class="node" x="738.0" y="88.0" width="178" height="62" rx="8"/>
<text class="node-text" x="827.0" y="124.0" text-anchor="middle"><tspan x="827.0" dy="-9">Configurations and</tspan><tspan x="827.0" dy="18">versions</tspan></text>
<rect class="node" x="998.0" y="88.0" width="226" height="54" rx="8"/>
<text class="node-text" x="1111.0" y="120.0" text-anchor="middle"><tspan x="1111.0" dy="0">Permissions and policies</tspan></text>
<rect class="node" x="1306.0" y="88.0" width="154" height="62" rx="8"/>
<text class="node-text" x="1383.0" y="124.0" text-anchor="middle"><tspan x="1383.0" dy="-9">Experiments and</tspan><tspan x="1383.0" dy="18">deployments</tspan></text>
<rect class="node" x="1542.0" y="88.0" width="150" height="54" rx="8"/>
<text class="node-text" x="1617.0" y="120.0" text-anchor="middle"><tspan x="1617.0" dy="0">Kill switches</tspan></text>
</svg>
