<svg xmlns="http://www.w3.org/2000/svg" width="310" height="968" viewBox="0 0 310 968" role="img" aria-labelledby="title desc">
<title>08_solved_classical_ml_cases diagram 6: 3. Design</title>
<desc>Generated SVG rendering of a Mermaid flowchart.</desc>
<defs>
<marker id="arrow" viewBox="0 0 10 10" refX="9" refY="5" markerWidth="7" markerHeight="7" orient="auto-start-reverse"><path d="M 0 0 L 10 5 L 0 10 z" fill="#475569"/></marker>
</defs>
<style>
.canvas{fill:#ffffff}.group{fill:#f8fafc;stroke:#cbd5e1;stroke-width:1.4}.group-title{font:600 14px Arial,sans-serif;fill:#334155}.node{fill:#eef6ff;stroke:#2563eb;stroke-width:1.5}.diamond{fill:#fff7ed;stroke:#ea580c;stroke-width:1.5}.node-text{font:13px Arial,sans-serif;fill:#0f172a}.edge{fill:none;stroke:#475569;stroke-width:1.45}.edge-label{font:12px Arial,sans-serif;fill:#475569}.label-bg{fill:#ffffff;opacity:.92}
</style>
<rect class="canvas" x="0" y="0" width="310" height="968"/>
<path class="edge" d="M 119.0 88.0 L 109.0 150.0" marker-end="url(#arrow)"/>
<path class="edge" d="M 109.0 204.0 C 126.0 204.0, 126.0 266.0, 143.0 266.0" marker-end="url(#arrow)"/>
<path class="edge" d="M 143.0 346.0 C 126.0 346.0, 126.0 408.0, 109.0 408.0" marker-end="url(#arrow)"/>
<path class="edge" d="M 109.0 470.0 C 128.0 470.0, 128.0 532.0, 147.0 532.0" marker-end="url(#arrow)"/>
<path class="edge" d="M 147.0 586.0 L 131.0 648.0" marker-end="url(#arrow)"/>
<path class="edge" d="M 131.0 702.0 L 155.0 764.0" marker-end="url(#arrow)"/>
<path class="edge" d="M 155.0 818.0 L 135.0 880.0" marker-end="url(#arrow)"/>
<path class="edge" d="M 135.0 880.0 L 109.0 204.0" marker-end="url(#arrow)"/>
<rect class="node" x="34.0" y="34.0" width="170" height="54" rx="8"/>
<text class="node-text" x="119.0" y="66.0" text-anchor="middle"><tspan x="119.0" dy="0">POS and inventory</tspan></text>
<rect class="node" x="34.0" y="150.0" width="150" height="54" rx="8"/>
<text class="node-text" x="109.0" y="182.0" text-anchor="middle"><tspan x="109.0" dy="0">Warehouse</tspan></text>
<rect class="node" x="34.0" y="266.0" width="218" height="80" rx="8"/>
<text class="node-text" x="143.0" y="311.0" text-anchor="middle"><tspan x="143.0" dy="-18">Feature pipelines</tspan><tspan x="143.0" dy="18">price, promo, calendar,</tspan><tspan x="143.0" dy="18">weather</tspan></text>
<rect class="node" x="34.0" y="408.0" width="150" height="62" rx="8"/>
<text class="node-text" x="109.0" y="444.0" text-anchor="middle"><tspan x="109.0" dy="-9">Hierarchical</tspan><tspan x="109.0" dy="18">reconciliation</tspan></text>
<rect class="node" x="34.0" y="532.0" width="226" height="54" rx="8"/>
<text class="node-text" x="147.0" y="564.0" text-anchor="middle"><tspan x="147.0" dy="0">Forecast models per tier</tspan></text>
<rect class="node" x="34.0" y="648.0" width="194" height="54" rx="8"/>
<text class="node-text" x="131.0" y="680.0" text-anchor="middle"><tspan x="131.0" dy="0">Prediction intervals</tspan></text>
<rect class="node" x="34.0" y="764.0" width="242" height="54" rx="8"/>
<text class="node-text" x="155.0" y="796.0" text-anchor="middle"><tspan x="155.0" dy="0">Replenishment and staffing</tspan></text>
<rect class="node" x="34.0" y="880.0" width="202" height="54" rx="8"/>
<text class="node-text" x="135.0" y="912.0" text-anchor="middle"><tspan x="135.0" dy="0">Outcomes and feedback</tspan></text>
</svg>
