<svg xmlns="http://www.w3.org/2000/svg" width="534" height="1430" viewBox="0 0 534 1430" role="img" aria-labelledby="title desc">
<title>08_solved_classical_ml_cases diagram 3: 3. Design</title>
<desc>Generated SVG rendering of a Mermaid flowchart.</desc>
<defs>
<marker id="arrow" viewBox="0 0 10 10" refX="9" refY="5" markerWidth="7" markerHeight="7" orient="auto-start-reverse"><path d="M 0 0 L 10 5 L 0 10 z" fill="#475569"/></marker>
</defs>
<style>
.canvas{fill:#ffffff}.group{fill:#f8fafc;stroke:#cbd5e1;stroke-width:1.4}.group-title{font:600 14px Arial,sans-serif;fill:#334155}.node{fill:#eef6ff;stroke:#2563eb;stroke-width:1.5}.diamond{fill:#fff7ed;stroke:#ea580c;stroke-width:1.5}.node-text{font:13px Arial,sans-serif;fill:#0f172a}.edge{fill:none;stroke:#475569;stroke-width:1.45}.edge-label{font:12px Arial,sans-serif;fill:#475569}.label-bg{fill:#ffffff;opacity:.92}
</style>
<rect class="canvas" x="0" y="0" width="534" height="1430"/>
<path class="edge" d="M 109.0 88.0 L 139.0 150.0" marker-end="url(#arrow)"/>
<path class="edge" d="M 139.0 212.0 L 143.0 274.0" marker-end="url(#arrow)"/>
<path class="edge" d="M 143.0 328.0 L 119.0 390.0" marker-end="url(#arrow)"/>
<path class="edge" d="M 119.0 444.0 C 135.0 444.0, 135.0 506.0, 151.0 506.0" marker-end="url(#arrow)"/>
<path class="edge" d="M 151.0 560.0 L 135.0 622.0" marker-end="url(#arrow)"/>
<path class="edge" d="M 135.0 684.0 L 131.0 746.0" marker-end="url(#arrow)"/>
<rect class="label-bg" x="60.5" y="701.0" width="145.0" height="20" rx="4"/>
<text class="edge-label" x="133.0" y="715.0" text-anchor="middle">Asynchronous upload</text>
<path class="edge" d="M 383.0 88.0 C 257.0 88.0, 257.0 746.0, 131.0 746.0" marker-end="url(#arrow)"/>
<path class="edge" d="M 131.0 800.0 L 151.0 862.0" marker-end="url(#arrow)"/>
<path class="edge" d="M 151.0 916.0 L 151.0 978.0" marker-end="url(#arrow)"/>
<path class="edge" d="M 151.0 1032.0 C 130.0 1032.0, 130.0 1094.0, 109.0 1094.0" marker-end="url(#arrow)"/>
<path class="edge" d="M 109.0 1148.0 L 119.0 1210.0" marker-end="url(#arrow)"/>
<path class="edge" d="M 119.0 1272.0 L 123.0 1334.0" marker-end="url(#arrow)"/>
<path class="edge" d="M 123.0 1334.0 L 143.0 328.0" marker-end="url(#arrow)" stroke-dasharray="6 5"/>
<rect class="label-bg" x="95.5" y="817.0" width="75.0" height="20" rx="4"/>
<text class="edge-label" x="133.0" y="831.0" text-anchor="middle">new model</text>
<rect class="node" x="34.0" y="34.0" width="150" height="54" rx="8"/>
<text class="node-text" x="109.0" y="66.0" text-anchor="middle"><tspan x="109.0" dy="0">Camera trigger</tspan></text>
<rect class="node" x="34.0" y="150.0" width="210" height="62" rx="8"/>
<text class="node-text" x="139.0" y="186.0" text-anchor="middle"><tspan x="139.0" dy="-9">Edge preprocessing and</tspan><tspan x="139.0" dy="18">quality gate</tspan></text>
<rect class="node" x="34.0" y="274.0" width="218" height="54" rx="8"/>
<text class="node-text" x="143.0" y="306.0" text-anchor="middle"><tspan x="143.0" dy="0">Compact defect detector</tspan></text>
<rect class="node" x="34.0" y="390.0" width="170" height="54" rx="8"/>
<text class="node-text" x="119.0" y="422.0" text-anchor="middle"><tspan x="119.0" dy="0">Confidence policy</tspan></text>
<rect class="node" x="34.0" y="506.0" width="234" height="54" rx="8"/>
<text class="node-text" x="151.0" y="538.0" text-anchor="middle"><tspan x="151.0" dy="0">Accept, divert, or review</tspan></text>
<rect class="node" x="34.0" y="622.0" width="202" height="62" rx="8"/>
<text class="node-text" x="135.0" y="658.0" text-anchor="middle"><tspan x="135.0" dy="-9">Local durable log and</tspan><tspan x="135.0" dy="18">buffer</tspan></text>
<rect class="node" x="34.0" y="746.0" width="194" height="54" rx="8"/>
<text class="node-text" x="131.0" y="778.0" text-anchor="middle"><tspan x="131.0" dy="0">Central object store</tspan></text>
<rect class="node" x="266.0" y="34.0" width="234" height="54" rx="8"/>
<text class="node-text" x="383.0" y="66.0" text-anchor="middle"><tspan x="383.0" dy="0">Operator and audit labels</tspan></text>
<rect class="node" x="34.0" y="862.0" width="234" height="54" rx="8"/>
<text class="node-text" x="151.0" y="894.0" text-anchor="middle"><tspan x="151.0" dy="0">Validation and versioning</tspan></text>
<rect class="node" x="34.0" y="978.0" width="234" height="54" rx="8"/>
<text class="node-text" x="151.0" y="1010.0" text-anchor="middle"><tspan x="151.0" dy="0">Training and augmentation</tspan></text>
<rect class="node" x="34.0" y="1094.0" width="150" height="54" rx="8"/>
<text class="node-text" x="109.0" y="1126.0" text-anchor="middle"><tspan x="109.0" dy="0">Model registry</tspan></text>
<rect class="node" x="34.0" y="1210.0" width="170" height="62" rx="8"/>
<text class="node-text" x="119.0" y="1246.0" text-anchor="middle"><tspan x="119.0" dy="-9">Hardware-specific</tspan><tspan x="119.0" dy="18">optimization</tspan></text>
<rect class="node" x="34.0" y="1334.0" width="178" height="62" rx="8"/>
<text class="node-text" x="123.0" y="1370.0" text-anchor="middle"><tspan x="123.0" dy="-9">Signed staged edge</tspan><tspan x="123.0" dy="18">deployment</tspan></text>
</svg>
