<svg xmlns="http://www.w3.org/2000/svg" width="3514" height="148" viewBox="0 0 3514 148" role="img" aria-labelledby="title desc">
<title>09_solved_generative_ai_cases diagram 2: 5. Query architecture</title>
<desc>Generated SVG rendering of a Mermaid flowchart.</desc>
<defs>
<marker id="arrow" viewBox="0 0 10 10" refX="9" refY="5" markerWidth="7" markerHeight="7" orient="auto-start-reverse"><path d="M 0 0 L 10 5 L 0 10 z" fill="#475569"/></marker>
</defs>
<style>
.canvas{fill:#ffffff}.group{fill:#f8fafc;stroke:#cbd5e1;stroke-width:1.4}.group-title{font:600 14px Arial,sans-serif;fill:#334155}.node{fill:#eef6ff;stroke:#2563eb;stroke-width:1.5}.diamond{fill:#fff7ed;stroke:#ea580c;stroke-width:1.5}.node-text{font:13px Arial,sans-serif;fill:#0f172a}.edge{fill:none;stroke:#475569;stroke-width:1.45}.edge-label{font:12px Arial,sans-serif;fill:#475569}.label-bg{fill:#ffffff;opacity:.92}
</style>
<rect class="canvas" x="0" y="0" width="3514" height="148"/>
<path class="edge" d="M 184.0 61.0 L 266.0 61.0" marker-end="url(#arrow)"/>
<path class="edge" d="M 416.0 61.0 L 498.0 65.0" marker-end="url(#arrow)"/>
<path class="edge" d="M 732.0 65.0 L 814.0 61.0" marker-end="url(#arrow)"/>
<path class="edge" d="M 964.0 61.0 L 1046.0 65.0" marker-end="url(#arrow)"/>
<path class="edge" d="M 1208.0 65.0 L 1290.0 65.0" marker-end="url(#arrow)"/>
<path class="edge" d="M 1524.0 65.0 L 1606.0 61.0" marker-end="url(#arrow)"/>
<path class="edge" d="M 1832.0 61.0 L 1914.0 61.0" marker-end="url(#arrow)"/>
<path class="edge" d="M 2132.0 61.0 L 2214.0 61.0" marker-end="url(#arrow)"/>
<path class="edge" d="M 2368.0 61.0 L 2450.0 74.0" marker-end="url(#arrow)"/>
<path class="edge" d="M 2636.0 74.0 L 2718.0 65.0" marker-end="url(#arrow)"/>
<path class="edge" d="M 2912.0 65.0 L 2994.0 65.0" marker-end="url(#arrow)"/>
<path class="edge" d="M 3212.0 65.0 L 3294.0 65.0" marker-end="url(#arrow)"/>
<rect class="node" x="34.0" y="34.0" width="150" height="54" rx="8"/>
<text class="node-text" x="109.0" y="66.0" text-anchor="middle"><tspan x="109.0" dy="0">User</tspan></text>
<rect class="node" x="266.0" y="34.0" width="150" height="54" rx="8"/>
<text class="node-text" x="341.0" y="66.0" text-anchor="middle"><tspan x="341.0" dy="0">SSO gateway</tspan></text>
<rect class="node" x="498.0" y="34.0" width="234" height="62" rx="8"/>
<text class="node-text" x="615.0" y="70.0" text-anchor="middle"><tspan x="615.0" dy="-9">Derived identity, groups,</tspan><tspan x="615.0" dy="18">and tenant</tspan></text>
<rect class="node" x="814.0" y="34.0" width="150" height="54" rx="8"/>
<text class="node-text" x="889.0" y="66.0" text-anchor="middle"><tspan x="889.0" dy="0">Rate limits</tspan></text>
<rect class="node" x="1046.0" y="34.0" width="162" height="62" rx="8"/>
<text class="node-text" x="1127.0" y="70.0" text-anchor="middle"><tspan x="1127.0" dy="-9">Query safety and</tspan><tspan x="1127.0" dy="18">classification</tspan></text>
<rect class="node" x="1290.0" y="34.0" width="234" height="62" rx="8"/>
<text class="node-text" x="1407.0" y="70.0" text-anchor="middle"><tspan x="1407.0" dy="-9">Hybrid retrieval with ACL</tspan><tspan x="1407.0" dy="18">filters</tspan></text>
<rect class="node" x="1606.0" y="34.0" width="226" height="54" rx="8"/>
<text class="node-text" x="1719.0" y="66.0" text-anchor="middle"><tspan x="1719.0" dy="0">Fusion and deduplication</tspan></text>
<rect class="node" x="1914.0" y="34.0" width="218" height="54" rx="8"/>
<text class="node-text" x="2023.0" y="66.0" text-anchor="middle"><tspan x="2023.0" dy="0">Cross-encoder reranking</tspan></text>
<rect class="node" x="2214.0" y="34.0" width="154" height="54" rx="8"/>
<text class="node-text" x="2291.0" y="66.0" text-anchor="middle"><tspan x="2291.0" dy="0">Context packing</tspan></text>
<rect class="node" x="2450.0" y="34.0" width="186" height="80" rx="8"/>
<text class="node-text" x="2543.0" y="79.0" text-anchor="middle"><tspan x="2543.0" dy="-18">LLM with answer,</tspan><tspan x="2543.0" dy="18">abstention,</tspan><tspan x="2543.0" dy="18">and citation schema</tspan></text>
<rect class="node" x="2718.0" y="34.0" width="194" height="62" rx="8"/>
<text class="node-text" x="2815.0" y="70.0" text-anchor="middle"><tspan x="2815.0" dy="-9">Claim, citation, and</tspan><tspan x="2815.0" dy="18">safety validation</tspan></text>
<rect class="node" x="2994.0" y="34.0" width="218" height="62" rx="8"/>
<text class="node-text" x="3103.0" y="70.0" text-anchor="middle"><tspan x="3103.0" dy="-9">Streamed answer and</tspan><tspan x="3103.0" dy="18">authorized source links</tspan></text>
<rect class="node" x="3294.0" y="34.0" width="186" height="62" rx="8"/>
<text class="node-text" x="3387.0" y="70.0" text-anchor="middle"><tspan x="3387.0" dy="-9">Redacted traces and</tspan><tspan x="3387.0" dy="18">feedback</tspan></text>
</svg>
